# xmcd
#
# Track frame offsets:
#	150
#	23175
#	46475
#	58005
#	70585
#	88130
#	109915
#	124305
#	130642
#	155522
#	177012
#
# Disc length: 2528 seconds
#
# Revision: 1
# Processed by: cddbd v1.5.1PL0 Copyright (c) Steve Scherf et al.
# Submitted via: CDex 1.50Beta5
#
DISCID=9209de0b
DTITLE=INVOICE - Turkey
DYEAR=1996
DGENRE=
TTITLE0=ILLUSION
TTITLE1=モノポリー
TTITLE2=あばんちゅうる
TTITLE3=Turkey
TTITLE4=逃亡者
TTITLE5=幸福が…
TTITLE6=わな
TTITLE7=Fail
TTITLE8=FANTASY
TTITLE9=Dream
TTITLE10=文明の街
EXTD=
EXTT0=
EXTT1=
EXTT2=
EXTT3=
EXTT4=
EXTT5=
EXTT6=
EXTT7=
EXTT8=
EXTT9=
EXTT10=
PLAYORDER=
